#!OML:ASF H:\ManfredObstacles\Project 1\Capture day 1\Session 1\Male.ASF
:FULLY-SPECIFIED
:DEGREES
371
root 1.24348 16.5758 -8.23774 -167.838 -10.3868 -177.045
lowerback -4.73069 -4.67394 -0.679739
upperback 4.1432 -6.40779 1.40836
thorax 7.21811 -3.26863 1.13614
lowerneck -1.24912 -2.6191 -5.32727
upperneck 15.8534 -3.57227 9.05235
head 5.1998 -1.14297 3.57983
rclavicle -1.23246e-014 4.77083e-015
rhumerus -54.1096 -24.0351 -67.0684
rradius 29.9559
rwrist 29.7986
rhand 1.45353 -7.99427
rfingers 7.12502
rthumb 26.9819 -36.0875
lclavicle -1.23246e-014 4.77083e-015
lhumerus -30.5885 46.04 66.8689
lradius 6.96559
lwrist -54.7528
lhand -17.4809 14.6197
lfingers 7.12502
lthumb 8.77126 44.4175
rfemur -31.9808 -6.62233 28.2258
rtibia 23.388
rfoot -9.83482 11.3466
rtoes 3.93218
lfemur -3.69242 -2.39898 -11.7392
ltibia 40.5552
lfoot 11.5519 -4.78194
ltoes -25.9675
372
root 1.27799 16.6021 -8.47964 -167.804 -9.87517 -176.947
lowerback -4.74572 -4.43205 -0.607549
upperback 4.10707 -6.08847 1.43121
thorax 7.17148 -3.10823 1.15768
lowerneck -1.27597 -2.57191 -5.32509
upperneck 15.6619 -3.50262 8.93537
head 5.13853 -1.12757 3.54247
rclavicle -1.78906e-015 1.19271e-015
rhumerus -52.8198 -22.9572 -68.4819
rradius 31.2118
rwrist 27.9412
rhand 1.73302 -7.96823
rfingers 7.12502
rthumb 27.2492 -36.0198
lclavicle -1.78906e-015 1.19271e-015
lhumerus -32.9446 47.8946 63.6863
lradius 7.02998
lwrist -57.57
lhand -17.2716 14.4517
lfingers 7.12502
lthumb 8.97325 44.2408
rfemur -30.9 -6.88393 28.6634
rtibia 22.9311
rfoot -10.3153 12.3092
rtoes 5.9741
lfemur -6.22128 -1.59511 -11.7182
ltibia 45.1624
lfoot 11.5949 -2.92012
ltoes -18.8918
373
root 1.30766 16.6178 -8.70759 -167.633 -9.33865 -176.705
lowerback -4.89893 -4.19962 -0.415785
upperback 4.02146 -5.79451 1.53973
thorax 7.15048 -2.95518 1.1905
lowerneck -1.18844 -2.47355 -5.43173
upperneck 15.404 -3.35973 8.83218
head 5.03381 -1.08593 3.53173
rclavicle 8.94531e-015 7.95139e-016
rhumerus -51.3842 -21.9235 -69.5784
rradius 32.2597
rwrist 26.3356
rhand 2.10565 -8.25197
rfingers 7.12502
rthumb 27.6056 -36.247
lclavicle 8.94531e-015 7.95139e-016
lhumerus -36.2075 49.5618 59.8759
lradius 7.96773
lwrist -60.0744
lhand -16.9744 13.4517
lfingers 7.12502
lthumb 9.26 43.2284
rfemur -30.0758 -6.79502 29.1573
rtibia 22.5816
rfoot -10.8416 12.9656
rtoes 7.80724
lfemur -9.03383 -0.921528 -11.6309
ltibia 49.5859
lfoot 8.79136 -0.720733
ltoes -17.3748
374
root 1.33633 16.6388 -8.93392 -167.46 -8.90303 -176.88
lowerback -5.07952 -3.86609 -0.509856
upperback 3.99443 -5.33324 1.50319
thorax 7.21556 -2.72943 1.24563
lowerneck -1.2909 -2.52565 -5.60421
upperneck 15.2413 -3.43215 8.85117
head 5.01001 -1.13881 3.55975
rclavicle -8.22969e-014 3.65764e-014
rhumerus -49.9456 -21.4546 -70.2678
rradius 33.0459
rwrist 25.1822
rhand 2.16864 -8.58547
rfingers 7.12502
rthumb 27.6659 -36.5709
lclavicle -8.22969e-014 3.65764e-014
lhumerus -39.4468 50.6248 56.2326
lradius 9.26661
lwrist -62.258
lhand -16.7347 11.7815
lfingers 7.12502
lthumb 9.49133 41.5478
rfemur -29.2644 -6.73443 29.1268
rtibia 22.3983
rfoot -11.627 13.4599
rtoes 9.32755
lfemur -11.8764 -0.571452 -12.0538
ltibia 53.5846
lfoot 6.60217 1.02872
ltoes -14.9043
375
root 1.36119 16.6607 -9.16042 -167.357 -8.56428 -177.295
lowerback -5.3822 -3.25383 -0.5507
upperback 4.09399 -4.49714 1.31136
thorax 7.45487 -2.31359 1.1443
lowerneck -1.41691 -2.90127 -6.10886
upperneck 14.9951 -3.98336 9.35881
head 5.01595 -1.41563 3.77294
rclavicle -6.76862e-014 1.03368e-014
rhumerus -48.625 -22.1145 -70.2894
rradius 33.5573
rwrist 24.8021
rhand 2.16446 -8.84561
rfingers 7.12502
rthumb 27.6619 -36.8317
lclavicle -6.76862e-014 1.03368e-014
lhumerus -41.683 50.8783 53.5442
lradius 10.4838
lwrist -64.1679
lhand -16.4847 9.58399
lfingers 7.12502
lthumb 9.73257 39.3391
rfemur -28.4044 -6.89678 28.8205
rtibia 22.3596
rfoot -12.5002 14.0018
rtoes 10.5034
lfemur -14.6521 -0.535897 -12.7859
ltibia 57.0967
lfoot 5.13913 2.26733
ltoes -12.9453
376
root 1.38453 16.6725 -9.3668 -167.709 -8.18294 -177.758
lowerback -5.03032 -2.62773 -0.680588
upperback 4.23058 -3.64329 1.11518
thorax 7.36367 -1.90049 1.12799
lowerneck -1.23114 -3.27489 -6.81192
upperneck 14.7214 -4.53219 10.0236
head 4.9731 -1.69475 4.07303
rclavicle -6.75868e-015 9.54166e-015
rhumerus -47.2364 -22.9648 -70.0118
rradius 33.6537
rwrist 25.188
rhand 2.13052 -9.13194
rfingers 7.12502
rthumb 27.6294 -37.1232
lclavicle -6.75868e-015 9.54166e-015
lhumerus -34.6267 39.3269 63.9874
lradius 12.123
lwrist -51.2965
lhand -16.0539 9.77003
lfingers 7.12502
lthumb 10.1482 39.5053
rfemur -27.162 -6.68035 28.2558
rtibia 22.4904
rfoot -13.4507 14.1107
rtoes 11.5162
lfemur -16.9882 -0.680937 -13.5974
ltibia 60.0821
lfoot 3.7485 3.12498
ltoes -9.9239
377
root 1.40211 16.6808 -9.56744 -167.831 -7.89091 -177.974
lowerback -4.79163 -2.39878 -0.881922
upperback 4.15952 -3.31585 1.09529
thorax 7.14964 -1.74846 1.27012
lowerneck -0.920649 -2.11883 -7.0131
upperneck 14.4641 -4.88831 10.3541
head 4.8576 -2.59123 4.13768
rclavicle 2.76311e-014 -1.05356e-014
rhumerus -45.5076 -22.842 -70.1924
rradius 33.4838
rwrist 25.9412
rhand 1.80248 -9.37151
rfingers 7.12502
rthumb 27.3157 -37.4126
lclavicle 2.76311e-014 -1.05356e-014
lhumerus -32.6203 30.397 69.248
lradius 14.4131
lwrist -41.1074
lhand -15.6848 9.82131
lfingers 7.12502
lthumb 10.5042 39.5389
rfemur -26.3003 -6.44861 27.9806
rtibia 22.7356
rfoot -14.4933 14.2742
rtoes 13.8051
lfemur -19.6816 -0.951245 -14.1336
ltibia 62.5538
lfoot 2.36684 3.26525
ltoes -9.5335
378
root 1.41694 16.6804 -9.76593 -168.033 -7.63602 -177.959
lowerback -5.2839 -2.38891 -1.30892
upperback 4.69727 -3.31716 1.3012
thorax 8.05342 -1.79709 1.68786
lowerneck -1.23162 -3.11642 -6.51556
upperneck 14.4014 -4.28609 9.53204
head 4.83896 -1.6067 3.87478
rclavicle 1.28216e-014 -3.77691e-015
rhumerus -42.3103 -22.3171 -71.1288
rradius 33.0366
rwrist 26.6403
rhand 1.11972 -9.45934
rfingers 7.12502
rthumb 26.6624 -37.6016
lclavicle 1.28216e-014 -3.77691e-015
lhumerus -31.4956 25.4835 72.2699
lradius 16.6274
lwrist -34.4829
lhand -15.2495 9.87155
lfingers 7.12502
lthumb 10.9241 39.5674
rfemur -25.4423 -6.43313 28.0091
rtibia 23.0895
rfoot -15.6327 14.6356
rtoes 15.9739
lfemur -22.2958 -1.29416 -14.3982
ltibia 64.4839
lfoot 1.0233 3.01771
ltoes -9.91695
379
root 1.43122 16.6708 -9.96265 -168.35 -7.28734 -178.083
lowerback -5.14678 -2.20832 -1.64171
upperback 4.80927 -3.05915 1.32669
thorax 8.10296 -1.69641 1.9359
lowerneck -0.946202 -3.03935 -5.91222
upperneck 14.2771 -4.13231 8.86373
head 4.71677 -1.54512 3.57161
rclavicle 8.94531e-015 3.97569e-016
rhumerus -40.1878 -21.8137 -71.7728
rradius 32.7419
rwrist 27.0892
rhand 0.493577 -9.48644
rfingers 7.12502
rthumb 26.063 -37.7184
lclavicle 8.94531e-015 3.97569e-016
lhumerus -31.3947 21.6985 73.8796
lradius 18.4081
lwrist -29.9719
lhand -14.8777 9.81294
lfingers 7.12502
lthumb 11.2827 39.4895
rfemur -24.4941 -6.32936 27.8392
rtibia 23.5761
rfoot -16.4888 14.927
rtoes 16.2728
lfemur -24.6565 -1.6415 -14.8257
ltibia 65.7936
lfoot -0.144442 2.935
ltoes -10.1335
380
root 1.44327 16.6508 -10.1559 -168.749 -6.8749 -178.116
lowerback -4.77351 -1.91993 -1.77287
upperback 4.78734 -2.67089 1.36075
thorax 7.84887 -1.51535 2.1066
lowerneck -0.598169 -1.95033 -5.7766
upperneck 14.196 -4.42902 8.71147
head 4.63035 -2.37758 3.43802
rclavicle 2.36057e-014 0
rhumerus -38.5941 -21.2586 -72.2729
rradius 32.8395
rwrist 27.2254
rhand 0.20796 -9.63222
rfingers 7.12502
rthumb 25.7895 -37.9042
lclavicle 2.36057e-014 0
lhumerus -31.5198 19.6567 74.5469
lradius 19.3009
lwrist -27.6781
lhand -14.7661 9.36525
lfingers 7.12502
lthumb 11.3903 39.0359
rfemur -23.527 -5.99703 27.7221
rtibia 24.1828
rfoot -17.377 15.0135
rtoes 16.0922
lfemur -26.825 -1.92956 -15.1357
ltibia 66.5072
lfoot -1.17097 2.99342
ltoes -10.286
381
root 1.45191 16.6273 -10.3496 -169.316 -6.41479 -178.169
lowerback -4.29528 -1.66526 -1.942
upperback 4.85516 -2.33714 1.39979
thorax 7.6334 -1.36732 2.29443
lowerneck -0.600905 -1.89528 -5.81078
upperneck 14.5935 -4.43867 8.77829
head 4.75379 -2.39382 3.46444
rclavicle 3.8266e-015 -9.44227e-015
rhumerus -37.0828 -20.5285 -72.9682
rradius 33.3064
rwrist 27.0818
rhand -0.278292 -9.84456
rfingers 7.12502
rthumb 25.3238 -38.1833
lclavicle 3.8266e-015 -9.44227e-015
lhumerus -31.7297 18.9483 74.6283
lradius 19.8224
lwrist -26.6063
lhand -14.611 8.97589
lfingers 7.12502
lthumb 11.5399 38.6382
rfemur -22.4378 -5.7949 27.6106
rtibia 24.9391
rfoot -18.8629 15.0411
rtoes 15.8043
lfemur -28.6379 -2.22846 -15.4535
ltibia 66.632
lfoot -2.29867 3.03121
ltoes -9.0649
382
root 1.4565 16.6066 -10.5453 -169.592 -5.94428 -178.198
lowerback -4.1072 -1.46922 -2.0709
upperback 4.82511 -2.06893 1.42344
thorax 7.48163 -1.24226 2.42679
lowerneck -0.585404 -1.82277 -5.67806
upperneck 14.8498 -4.37525 8.63856
head 4.81947 -2.37166 3.40165
rclavicle -1.82385e-014 9.14409e-015
rhumerus -35.6029 -19.7585 -73.8613
rradius 33.7958
rwrist 26.8902
rhand -0.896057 -9.92521
rfingers 7.12502
rthumb 24.7318 -38.3465
lclavicle -1.82385e-014 9.14409e-015
lhumerus -32.1744 18.6718 74.4392
lradius 20.4282
lwrist -25.8102
lhand -14.4416 8.9756
lfingers 7.12502
lthumb 11.7033 38.6287
rfemur -21.7249 -5.60041 27.5604
rtibia 25.7693
rfoot -20.3028 14.9303
rtoes 12.5024
lfemur -30.6846 -2.49967 -15.6934
ltibia 66.2188
lfoot -3.14834 2.92215
ltoes -9.06895
383
root 1.45804 16.58 -10.7425 -169.536 -5.51741 -178.181
lowerback -4.31098 -1.21777 -1.9585
upperback 4.70023 -1.71939 1.3686
thorax 7.43845 -1.05502 2.34161
lowerneck -0.44246 -1.82525 -5.46072
upperneck 14.9583 -4.38689 8.40121
head 4.82132 -2.38683 3.29176
rclavicle -9.14409e-015 -1.20265e-014
rhumerus -34.2629 -19.0677 -74.8852
rradius 34.3298
rwrist 26.4227
rhand -1.14206 -9.88404
rfingers 7.12502
rthumb 24.496 -38.3375
lclavicle -9.14409e-015 -1.20265e-014
lhumerus -32.6149 18.4076 74.1193
lradius 20.9328
lwrist -25.3322
lhand -14.2648 9.31463
lfingers 7.12502
lthumb 11.8738 38.958
rfemur -21.3729 -5.24842 27.5565
rtibia 26.5382
rfoot -21.5537 14.4784
rtoes 5.81416
lfemur -32.9211 -2.78718 -15.7918
ltibia 65.2527
lfoot -3.75277 2.77078
ltoes -8.52545
